<svg width="54" height="54" viewBox="0 0 54 54" fill="none" xmlns="http://www.w3.org/2000/svg">
<rect x="0.509452" y="0.509452" width="52.9811" height="52.9811" rx="14.5848" fill="#D1D1D1"/>
<rect x="0.509452" y="0.509452" width="52.9811" height="52.9811" rx="14.5848" stroke="#E1E1E1" stroke-width="1.0189"/>
<path d="M39.6527 36.4629C39.9484 37.1096 40.1047 37.664 40.1217 38.1259C40.1392 38.5623 39.9907 38.957 39.6763 39.3102C39.3881 39.6382 38.9075 39.9626 38.2347 40.2834C37.2 40.7513 36.4026 40.8774 35.8424 40.6617C35.2817 40.4717 34.7674 39.8594 34.2995 38.8247L27.0574 22.916L19.2628 38.5429C18.7313 39.5332 18.1819 40.1128 17.6145 40.2817C17.0722 40.4767 16.2929 40.321 15.2765 39.8147C14.6157 39.4945 14.1346 39.1649 13.8331 38.8259C13.5579 38.4617 13.4373 38.0491 13.4716 37.5881C13.5064 37.1014 13.6964 36.5407 14.0417 35.906L24.5502 15.0595C24.8162 14.5516 25.1956 14.1483 25.6885 13.8498C26.207 13.5517 26.7355 13.4078 27.2739 13.4179C27.6584 13.4251 28.0159 13.5087 28.3464 13.6688C28.6772 13.8032 28.9685 14.001 29.2201 14.2622C29.4973 14.5239 29.7222 14.8359 29.895 15.1982L39.6527 36.4629ZM20.3883 33.9091L22.8657 28.9928L31.057 29.1463L33.3484 34.1519L20.3883 33.9091Z" fill="#FFFEFC"/>
</svg>
