<svg width="41" height="41" viewBox="0 0 41 41" fill="none" xmlns="http://www.w3.org/2000/svg">
<rect x="0.938629" y="0.93814" width="39.3571" height="39.3571" rx="9.20237" fill="#D1D1D1"/>
<rect x="0.938629" y="0.93814" width="39.3571" height="39.3571" rx="9.20237" stroke="#E1E1E1" stroke-width="0.642882"/>
<path d="M20.1206 31.6128C19.3338 31.6059 18.4494 31.5007 17.4675 31.2973C16.5135 31.122 15.5743 30.8633 14.6498 30.5213C13.7537 30.1516 13.0127 29.7277 12.4267 29.2494C11.8407 28.7712 11.5503 28.2259 11.5557 27.6137C11.5581 27.3354 11.617 27.0297 11.7323 26.6968C11.876 26.3362 12.0621 25.9482 12.2905 25.5327C12.519 25.1172 12.8039 24.6744 13.1453 24.2043C13.3444 23.9277 13.5711 23.7209 13.8252 23.584C14.1074 23.4473 14.4312 23.3806 14.7965 23.3838C15.3024 23.3882 15.7932 23.5038 16.269 23.7306C16.745 23.9296 17.2207 24.1703 17.696 24.4528C18.1715 24.7074 18.6612 24.9483 19.1651 25.1753C19.6974 25.3748 20.2585 25.4771 20.8487 25.4823C21.3826 25.4869 21.7765 25.4347 22.0304 25.3256C22.3124 25.2167 22.4544 25.051 22.4563 24.8284C22.4583 24.6057 22.3615 24.424 22.166 24.2831C21.9986 24.1425 21.7467 24.029 21.4102 23.9425C21.102 23.8285 20.7375 23.7279 20.3167 23.6407C19.8959 23.5536 19.4472 23.4522 18.9704 23.3367C18.4936 23.2212 18.0031 23.0778 17.4987 22.9064C16.8541 22.7059 16.224 22.45 15.6084 22.1384C14.9931 21.7991 14.4348 21.3628 13.9336 20.8296C13.4605 20.2967 13.0726 19.6532 12.7701 18.8991C12.4956 18.1452 12.3631 17.2256 12.3726 16.1403C12.3853 14.6932 12.7331 13.4855 13.416 12.5174C14.099 11.5493 15.1031 10.8205 16.4282 10.3311C17.7534 9.84172 19.3855 9.6055 21.3245 9.62244C21.8023 9.62662 22.2798 9.65862 22.757 9.71845C23.2342 9.77829 23.7113 9.86595 24.188 9.98144C24.6929 10.0972 25.1833 10.2545 25.6594 10.4535C26.1637 10.6249 26.6679 10.8241 27.1718 11.0512C28.2076 11.5056 28.7361 12.1364 28.7571 12.9437C28.7784 13.7232 28.4762 14.5415 27.8504 15.3989C27.5086 15.9247 27.1538 16.3251 26.786 16.6002C26.4466 16.8477 26.0942 16.9699 25.7289 16.9667C25.2793 16.9628 24.7886 16.8333 24.2568 16.5781C23.7251 16.323 23.1652 16.0676 22.5773 15.812C21.9893 15.5564 21.4003 15.426 20.8101 15.4208C20.4729 15.4179 20.1775 15.457 19.9238 15.5383C19.6985 15.592 19.5291 15.6879 19.4154 15.8261C19.3021 15.9364 19.2446 16.0751 19.2432 16.2421C19.2405 16.5482 19.3367 16.7995 19.5317 16.996C19.755 17.165 20.0349 17.3066 20.3711 17.4209C20.7355 17.5354 21.1421 17.6363 21.591 17.7238C22.068 17.8114 22.5731 17.8993 23.1063 17.9875C23.836 18.1052 24.5791 18.2926 25.3357 18.5497C26.1206 18.7792 26.8343 19.1194 27.4767 19.5703C28.1192 20.0212 28.6337 20.638 29.0203 21.4207C29.4069 22.2034 29.5948 23.2208 29.5838 24.4732C29.5632 26.8387 28.7466 28.6267 27.1341 29.8372C25.5496 31.0479 23.2118 31.6398 20.1206 31.6128Z" fill="#FFFEFC"/>
</svg>
