<svg width="72" height="72" viewBox="0 0 72 72" fill="none" xmlns="http://www.w3.org/2000/svg">
<rect x="0.678039" y="0.991703" width="70.2002" height="70.2002" rx="19.325" transform="rotate(-0.256267 0.678039 0.991703)" fill="#D1D1D1"/>
<rect x="0.678039" y="0.991703" width="70.2002" height="70.2002" rx="19.325" transform="rotate(-0.256267 0.678039 0.991703)" stroke="#E1E1E1" stroke-width="1.35005"/>
<path d="M49.4495 15.4344C50.1971 15.4344 50.9053 15.4929 51.5741 15.6099C52.243 15.7269 52.7938 16.0973 53.2266 16.7212C53.6987 17.3451 53.9348 18.4173 53.9348 19.938C53.9348 21.4197 53.6987 22.492 53.2266 23.1548C52.7938 23.7787 52.2233 24.1491 51.5151 24.2661C50.8462 24.3831 50.138 24.4416 49.3905 24.4416H41.2462V51.229C41.2462 52.0868 41.1675 52.9252 41.0102 53.744C40.8528 54.5238 40.4003 55.1672 39.6528 55.6741C38.9446 56.181 37.6856 56.4344 35.8757 56.4344C34.1446 56.4344 32.9053 56.181 32.1577 55.6741C31.4102 55.1282 30.9577 54.4654 30.8003 53.6855C30.6823 52.8667 30.6233 52.0284 30.6233 51.1705V24.4416H22.42C21.7118 24.4416 21.0036 24.3831 20.2954 24.2661C19.6266 24.1102 19.0561 23.7202 18.5839 23.0964C18.1512 22.4725 17.9348 21.4002 17.9348 19.8795C17.9348 18.3978 18.1512 17.3451 18.5839 16.7212C19.0561 16.0973 19.6462 15.7269 20.3544 15.6099C21.0626 15.4929 21.7708 15.4344 22.479 15.4344H49.4495Z" fill="#FFFEFC"/>
</svg>
