<svg width="72" height="72" viewBox="0 0 72 72" fill="none" xmlns="http://www.w3.org/2000/svg">
<rect x="1.00608" y="1.00657" width="70.2002" height="70.2002" rx="19.325" fill="#D1D1D1"/>
<rect x="1.00608" y="1.00657" width="70.2002" height="70.2002" rx="19.325" stroke="#E1E1E1" stroke-width="1.35005"/>
<path d="M35.6434 61.0701C32.7964 61.0167 30.376 60.625 28.3821 59.895C26.4349 59.1658 24.8398 58.3277 23.597 57.3808C22.355 56.3877 21.4147 55.4927 20.776 54.6957C20.1373 53.8986 19.7497 53.4065 19.6131 53.2192C18.7013 52.0476 18.1374 50.998 17.9214 50.0703C17.752 49.1435 17.9093 48.2228 18.3933 47.3083C18.924 46.3946 19.7831 45.3948 20.9707 44.3087C22.0631 43.3132 23.1236 42.7789 24.1521 42.7058C25.1815 42.5866 26.181 42.8131 27.1508 43.3854C28.1671 43.9586 29.1321 44.7849 30.0456 45.8642C31.1424 47.1316 32.0832 48.0036 32.8679 48.4801C33.6536 48.9104 34.5598 49.1352 35.5865 49.1544C36.8467 49.1781 37.876 49.0588 38.6746 48.7967C39.4741 48.4884 40.0661 48.0377 40.4508 47.4446C40.8362 46.8053 41.0381 46.0009 41.0562 45.0314C41.0709 44.2466 40.6855 43.6391 39.8998 43.2087C39.1151 42.7322 38.0723 42.3201 36.7716 41.9725C35.5175 41.6257 34.1005 41.2528 32.5206 40.8538C30.9416 40.4086 29.388 39.8484 27.86 39.1732C26.9335 38.7864 26.032 38.3077 25.1557 37.7371C24.2793 37.1665 23.4509 36.5276 22.6704 35.8202C21.9375 35.0676 21.3001 34.2013 20.7582 33.2214C20.2172 32.1953 19.795 31.0559 19.4917 29.8034C19.235 28.5517 19.1214 27.1411 19.1508 25.5715C19.2036 22.7554 19.9508 20.2526 21.3925 18.063C22.8808 15.8742 24.8739 14.1567 27.3717 12.9104C29.9162 11.665 32.7752 11.0721 35.9489 11.1316C38.2358 11.1744 40.1925 11.3958 41.8191 11.7957C43.4457 12.1957 44.7676 12.6592 45.7849 13.1862C46.8488 13.7141 47.6565 14.2142 48.2079 14.6863C48.7601 15.1123 49.105 15.3958 49.2424 15.5369C50.7566 16.9507 51.5742 18.1667 51.6952 19.185C51.817 20.1571 51.2306 21.5546 49.9359 23.3775C48.4985 25.3364 47.1005 26.4416 45.7419 26.6932C44.3841 26.8987 42.8288 26.4308 41.076 25.2896C40.7078 25.0056 40.3401 24.6986 39.9728 24.3684C39.6063 23.9921 39.0986 23.6824 38.4495 23.4394C37.848 23.151 36.9171 22.995 35.657 22.9714C35.1903 22.9627 34.7218 23.0462 34.2517 23.2222C33.7823 23.3519 33.3817 23.5522 33.0499 23.8231C32.7188 24.0478 32.4332 24.3426 32.1929 24.7075C31.9993 25.0734 31.8986 25.464 31.8908 25.8795C31.8726 26.8489 32.2317 27.6176 32.9681 28.1856C33.7053 28.7074 34.6781 29.1182 35.8863 29.4179C37.1413 29.7185 38.5129 30.0213 40.0012 30.3262C41.4895 30.6312 42.9994 31.029 44.5309 31.5195C45.7832 31.9586 46.9868 32.5122 48.1414 33.1804C49.2961 33.8485 50.3073 34.6987 51.175 35.731C52.0428 36.7632 52.719 38.0458 53.2039 39.5789C53.7362 41.0666 53.9821 42.8954 53.9414 45.0651C53.8852 48.0658 53.2538 50.617 52.0472 52.7186C50.8415 54.7742 49.2931 56.4307 47.402 57.6884C45.5585 58.9007 43.5814 59.7642 41.4708 60.2788C39.406 60.8404 37.4635 61.1042 35.6434 61.0701Z" fill="#FFFEFC"/>
</svg>
