<svg width="58" height="58" viewBox="0 0 58 58" fill="none" xmlns="http://www.w3.org/2000/svg">
<rect x="0.321441" y="0.319915" width="57.3571" height="57.3571" rx="15.6786" fill="#D1D1D1"/>
<rect x="0.321441" y="0.319915" width="57.3571" height="57.3571" rx="15.6786" stroke="#E1E1E1" stroke-width="0.642882"/>
<path d="M32.423 42.221C31.0407 42.221 29.8411 42.0645 28.824 41.7516C27.8068 41.4386 26.9593 40.9561 26.2812 40.3041C25.6292 39.6521 25.1337 38.8306 24.7946 37.8396C24.4817 36.8485 24.3252 35.688 24.3252 34.3579V19.1794C24.3252 18.5796 24.3773 18.0319 24.4817 17.5364C24.586 17.0148 24.8859 16.5975 25.3814 16.2846C25.8769 15.9455 26.7115 15.776 27.8851 15.776C29.0326 15.776 29.8541 15.9586 30.3496 16.3237C30.8452 16.6627 31.1451 17.1061 31.2494 17.6538C31.3537 18.2014 31.4059 18.7621 31.4059 19.3359V34.0058C31.4059 34.2927 31.4189 34.5405 31.445 34.7491C31.4971 34.9317 31.5623 35.0751 31.6406 35.1794C31.7188 35.2837 31.8231 35.362 31.9535 35.4141C32.0839 35.4663 32.2535 35.4924 32.4621 35.4924C33.1402 35.4924 33.74 35.5445 34.2616 35.6489C34.8093 35.7532 35.2266 36.027 35.5134 36.4704C35.8264 36.9137 35.9829 37.657 35.9829 38.7002C35.9829 39.8738 35.8003 40.7084 35.4352 41.2039C35.0701 41.6994 34.6137 41.9863 34.066 42.0645C33.5183 42.1688 32.9707 42.221 32.423 42.221ZM23.5037 22.5828H28.0807L33.4792 22.3872C34.053 22.3872 34.6007 22.4394 35.1222 22.5437C35.6699 22.648 36.1133 22.948 36.4523 23.4435C36.8174 23.939 37 24.7866 37 25.9863C37 27.0816 36.8174 27.8771 36.4523 28.3726C36.1133 28.8681 35.6699 29.1811 35.1222 29.3115C34.6007 29.4419 34.0399 29.5071 33.4401 29.5071L28.4719 29.3897H23.3472C22.4605 29.3375 21.8476 29.0507 21.5086 28.5291C21.1695 28.0075 21 27.1468 21 25.9472C21 24.8257 21.2086 23.9912 21.6259 23.4435C22.0432 22.8697 22.6691 22.5828 23.5037 22.5828Z" fill="#FFFEFC"/>
</svg>
