<svg width="40" height="40" viewBox="0 0 40 40" fill="none" xmlns="http://www.w3.org/2000/svg">
<rect x="0.321441" y="0.321441" width="39.3571" height="39.3571" rx="9.20237" fill="#D1D1D1"/>
<rect x="0.321441" y="0.321441" width="39.3571" height="39.3571" rx="9.20237" stroke="#E1E1E1" stroke-width="0.642882"/>
<path d="M25.6048 28C24.817 28 24.2315 27.8611 23.8483 27.5832C23.4864 27.3053 23.3054 26.9633 23.3054 26.5571L23.6248 26.012C23.497 26.2258 23.2522 26.493 22.8902 26.8136C22.5283 27.1129 22.0599 27.3908 21.485 27.6473C20.9102 27.8824 20.1969 28 19.3453 28C18.3659 28 17.4291 27.7862 16.5349 27.3587C15.662 26.9312 14.8849 26.3434 14.2036 25.5952C13.5223 24.8257 12.9794 23.9599 12.5749 22.998C12.1916 22.0361 12 21.0207 12 19.9519C12 18.9045 12.1916 17.9105 12.5749 16.9699C12.9794 16.008 13.5223 15.1637 14.2036 14.4369C14.9062 13.6887 15.6939 13.1009 16.5669 12.6733C17.4398 12.2458 18.3659 12.0321 19.3453 12.0321C20.1331 12.0321 20.8037 12.1496 21.3573 12.3848C21.9108 12.5985 22.3686 12.855 22.7305 13.1543C23.1138 13.4536 23.4012 13.7422 23.5928 14.02L23.3373 13.5711C23.316 13.0581 23.4864 12.6733 23.8483 12.4168C24.2315 12.1389 24.8277 12 25.6367 12C26.4032 12 26.9461 12.1176 27.2655 12.3527C27.6061 12.5878 27.8084 12.8978 27.8723 13.2826C27.9574 13.6673 28 14.0735 28 14.501L28 25.5631C28 25.9693 27.9574 26.3647 27.8723 26.7495C27.8084 27.1343 27.6061 27.4442 27.2655 27.6794C26.9461 27.8931 26.3925 28 25.6048 28ZM20.0479 23.2224C20.6015 23.2224 21.1018 23.0835 21.5489 22.8056C22.0173 22.5063 22.3792 22.1109 22.6347 21.6192C22.9115 21.1276 23.0499 20.5825 23.0499 19.984C23.0499 19.3641 22.9115 18.819 22.6347 18.3487C22.358 17.857 21.9854 17.4723 21.517 17.1944C21.0486 16.8951 20.5376 16.7455 19.984 16.7455C19.3666 16.7455 18.813 16.8951 18.3234 17.1944C17.855 17.4937 17.4717 17.8891 17.1737 18.3808C16.8969 18.8724 16.7585 19.4282 16.7585 20.0481C16.7585 20.6252 16.8969 21.1597 17.1737 21.6513C17.4717 22.1216 17.8656 22.5063 18.3553 22.8056C18.8663 23.0835 19.4305 23.2224 20.0479 23.2224Z" fill="#FFFEFC"/>
</svg>
