<svg width="58" height="58" viewBox="0 0 58 58" fill="none" xmlns="http://www.w3.org/2000/svg">
<rect x="0.321441" y="0.321441" width="57.3571" height="57.3571" rx="15.6786" fill="#D1D1D1"/>
<rect x="0.321441" y="0.321441" width="57.3571" height="57.3571" rx="15.6786" stroke="#E1E1E1" stroke-width="0.642882"/>
<path d="M32.423 42.2225C31.0407 42.2225 29.8411 42.066 28.824 41.753C27.8068 41.4401 26.9593 40.9576 26.2812 40.3056C25.6292 39.6536 25.1337 38.8321 24.7946 37.841C24.4817 36.85 24.3252 35.6894 24.3252 34.3594V19.1809C24.3252 18.5811 24.3773 18.0334 24.4817 17.5379C24.586 17.0163 24.8859 16.599 25.3814 16.286C25.8769 15.947 26.7115 15.7775 27.8851 15.7775C29.0326 15.7775 29.8541 15.96 30.3496 16.3251C30.8452 16.6642 31.1451 17.1075 31.2494 17.6552C31.3537 18.2029 31.4059 18.7636 31.4059 19.3374V34.0073C31.4059 34.2942 31.4189 34.5419 31.445 34.7506C31.4971 34.9331 31.5623 35.0766 31.6406 35.1809C31.7188 35.2852 31.8231 35.3635 31.9535 35.4156C32.0839 35.4678 32.2535 35.4939 32.4621 35.4939C33.1402 35.4939 33.74 35.546 34.2616 35.6503C34.8093 35.7547 35.2266 36.0285 35.5134 36.4718C35.8264 36.9152 35.9829 37.6585 35.9829 38.7017C35.9829 39.8753 35.8003 40.7098 35.4352 41.2053C35.0701 41.7009 34.6137 41.9877 34.066 42.066C33.5183 42.1703 32.9707 42.2225 32.423 42.2225ZM23.5037 22.5843H28.0807L33.4792 22.3887C34.053 22.3887 34.6007 22.4409 35.1222 22.5452C35.6699 22.6495 36.1133 22.9494 36.4523 23.4449C36.8174 23.9405 37 24.7881 37 25.9877C37 27.0831 36.8174 27.8785 36.4523 28.374C36.1133 28.8696 35.6699 29.1825 35.1222 29.3129C34.6007 29.4433 34.0399 29.5085 33.4401 29.5085L28.4719 29.3912H23.3472C22.4605 29.339 21.8476 29.0521 21.5086 28.5305C21.1695 28.0089 21 27.1483 21 25.9486C21 24.8272 21.2086 23.9926 21.6259 23.4449C22.0432 22.8712 22.6691 22.5843 23.5037 22.5843Z" fill="#FFFEFC"/>
</svg>
